<svg width="940" height="320" viewBox="0 0 940 320" fill="none" xmlns="http://www.w3.org/2000/svg">
<path d="M15 240.035V87.1718H54.2398V205.75H120.432V240.035H15ZM183.731 242C171.972 242 161.535 239.379 152.418 234.138C143.302 228.897 136.101 221.691 130.817 212.519C125.664 203.202 123.088 192.574 123.088 180.636C123.088 168.699 125.664 158.144 130.817 148.972C135.981 140.009 142.976 132.992 151.799 127.922L152.418 127.571C161.535 122.33 171.972 119.71 183.731 119.71C195.49 119.71 205.927 122.33 215.044 127.571C224.292 132.667 231.493 139.8 236.645 148.972C241.798 158.144 244.374 168.699 244.374 180.636C244.374 192.574 241.798 203.202 236.645 212.519C231.493 221.691 224.292 228.897 215.044 234.138C205.927 239.379 195.49 242 183.731 242ZM183.731 209.025C188.091 209.025 191.922 207.933 195.225 205.75C198.661 203.566 201.369 200.363 203.351 196.141C205.333 191.774 206.324 186.605 206.324 180.636C206.324 174.668 205.333 169.645 203.351 165.569C201.445 161.509 198.868 158.392 195.618 156.217L195.225 155.96C191.922 153.776 188.091 152.684 183.731 152.684C179.503 152.684 175.672 153.776 172.236 155.96C168.933 158.144 166.225 161.347 164.111 165.569C162.129 169.645 161.138 174.668 161.138 180.636C161.138 186.605 162.129 191.774 164.111 196.141C166.225 200.363 168.933 203.566 172.236 205.75C175.672 207.933 179.503 209.025 183.731 209.025ZM295.508 78L295.507 132.042C297.481 129.798 299.661 127.871 302.048 126.261C308.522 121.894 316.317 119.71 325.433 119.71C335.21 119.71 344.062 122.185 351.99 127.134C359.862 131.969 366.095 138.818 370.69 147.68L371.015 148.317C375.771 157.343 378.15 168.116 378.15 180.636C378.15 193.302 375.771 204.221 371.015 213.393C366.391 222.419 360.049 229.48 351.99 234.575C344.062 239.525 335.21 242 325.433 242C315.789 242 307.729 239.816 301.255 235.449C298.43 233.503 295.919 231.094 293.723 228.223L293.724 240.035H257.854V78H295.508ZM317.506 152.684C313.278 152.684 309.447 153.776 306.012 155.96C302.709 158.144 300 161.347 297.886 165.569C295.904 169.645 294.914 174.668 294.914 180.636C294.914 186.605 295.904 191.774 297.886 196.141C300 200.363 302.709 203.566 306.012 205.75C309.447 207.933 313.278 209.025 317.506 209.025C321.734 209.025 325.5 207.933 328.803 205.75C332.238 203.566 334.946 200.363 336.928 196.141C339.042 191.774 340.099 186.605 340.099 180.636C340.099 174.668 339.042 169.645 336.928 165.569C335.022 161.509 332.445 158.392 329.196 156.217L328.803 155.96C325.5 153.776 321.734 152.684 317.506 152.684ZM422.841 191.337L422.925 191.674C423.435 193.66 424.121 195.513 424.982 197.233C427.228 201.455 430.399 204.731 434.495 207.06C438.591 209.244 443.479 210.336 449.16 210.336C454.445 210.336 458.937 209.535 462.637 207.933C466.216 206.301 469.737 203.908 473.201 200.751L473.933 200.072L493.751 222.783C488.598 229.043 482.257 233.847 474.726 237.196C467.195 240.399 458.277 242 447.971 242C435.288 242 424.189 239.379 414.677 234.138C405.296 228.752 397.964 221.473 392.679 212.301C387.526 202.984 384.95 192.429 384.95 180.636C384.95 168.844 387.46 158.362 392.48 149.19C397.516 140.085 404.382 132.995 413.076 127.922L413.686 127.571C422.67 122.33 432.777 119.71 444.008 119.71C454.319 119.71 463.751 121.996 472.302 126.569L472.942 126.916C481.662 131.575 488.598 138.49 493.751 147.662C498.904 156.834 501.48 167.971 501.48 181.073C501.48 182.367 501.428 183.834 501.324 185.473L501.282 186.096L501.112 188.449C501.037 189.459 500.961 190.422 500.885 191.337L422.841 191.337ZM444.206 149.19C439.714 149.19 435.75 150.282 432.315 152.466C429.012 154.65 426.436 157.78 424.586 161.856C424.166 162.749 423.794 163.679 423.469 164.646C422.993 166.065 422.619 167.565 422.348 169.145L422.29 169.499H466.25L466.235 169.393C465.834 166.755 465.113 164.338 464.072 162.141L463.826 161.638C462.05 157.864 459.544 154.896 456.307 152.732L455.898 152.466C452.595 150.282 448.698 149.19 444.206 149.19ZM555.901 87.1718L555.9 144.604H609.41V87.1718H648.65V240.035H609.41V180.418H555.9L555.901 240.035H516.661V87.1718H555.901ZM715.766 242C707.046 242 699.185 240.107 692.183 236.322C685.313 232.537 679.896 226.641 675.932 218.634C672.1 210.481 670.185 200.217 670.185 187.843V121.675H707.839V181.073C707.839 190.245 709.358 196.796 712.397 200.727C715.568 204.658 719.994 206.623 725.675 206.623C729.375 206.623 732.744 205.677 735.783 203.784C738.821 201.892 741.266 198.907 743.115 194.831C744.965 190.609 745.89 185.222 745.89 178.671V121.675H783.544V240.035H747.673L747.677 227.655C745.035 230.852 741.995 233.523 738.557 235.667C731.555 239.889 723.958 242 715.766 242ZM841.489 78L841.488 132.041C843.462 129.798 845.642 127.871 848.029 126.261C854.503 121.894 862.298 119.71 871.414 119.71C881.191 119.71 890.043 122.185 897.97 127.134C905.843 131.969 912.076 138.818 916.671 147.68L916.996 148.317C921.752 157.343 924.13 168.116 924.13 180.636C924.13 193.302 921.752 204.221 916.996 213.393C912.372 222.419 906.03 229.48 897.97 234.575C890.043 239.525 881.191 242 871.414 242C861.769 242 853.71 239.816 847.236 235.449C844.411 233.503 841.9 231.095 839.705 228.225L839.705 240.035H803.835V78H841.489ZM863.487 152.684C859.259 152.684 855.428 153.776 851.992 155.96C848.689 158.144 845.981 161.347 843.867 165.569C841.885 169.645 840.894 174.668 840.894 180.636C840.894 186.605 841.885 191.774 843.867 196.141C845.981 200.363 848.689 203.566 851.992 205.75C855.428 207.933 859.259 209.025 863.487 209.025C867.715 209.025 871.48 207.933 874.783 205.75C878.218 203.566 880.927 200.363 882.909 196.141C885.023 191.774 886.08 186.605 886.08 180.636C886.08 174.668 885.023 169.645 882.909 165.569C881.003 161.509 878.425 158.392 875.176 156.217L874.783 155.96C871.48 153.776 867.715 152.684 863.487 152.684Z" fill="white"/>
</svg>
