<svg width="40" height="40" viewBox="0 0 40 40" fill="none" xmlns="http://www.w3.org/2000/svg">
<g clip-path="url(#clip0_1423_6522)">
<path d="M37.6187 9.88477L31.2679 13.5128L31.2679 33.6491L37.6187 29.919L37.6187 9.88477Z" fill="#334DEF"/>
<path d="M31.115 26.4277L37.4658 30.0641L20.2572 40L13.9576 36.3125L31.115 26.4277Z" fill="#263CC7"/>
<path d="M20.4641 19.8721L26.8149 23.5084L9.60631 33.4444L3.30673 29.7568L20.4641 19.8721Z" fill="#263CC7"/>
<path d="M3.00003 9.88477L9.35083 13.5128L9.35083 33.6491L3.00003 29.919L3.00003 9.88477Z" fill="#334DEF"/>
<path d="M20.2558 -2.53572e-08L26.6066 3.63635L9.39794 13.5723L3.09835 9.88472L20.2558 -2.53572e-08Z" fill="#4473F5"/>
<path d="M31.3201 6.40234L37.6709 10.0387L20.4623 19.9746L14.1627 16.2871L31.3201 6.40234Z" fill="#4473F5"/>
<path d="M28.1951 22.7922L37.6188 17.3633V23.7141L28.1951 29.143V22.7922Z" fill="#4473F5"/>
</g>
<defs>
<clipPath id="clip0_1423_6522">
<rect width="40" height="40" fill="white"/>
</clipPath>
</defs>
</svg>
